<group>
loop_mode=no_loop
ampeg_release=0.250

<region>
sample=SnareRim.As0.wav
pitch_keycenter=22
lokey=0
hikey=22
tune=0

<region>
sample=BassDrum.Bn0.wav
pitch_keycenter=23
lokey=23
hikey=32
tune=0

<region>
sample=MiddleTom.Dn2@An1.wav
pitch_keycenter=33
lokey=33
hikey=33
tune=1700

<region>
sample=HihatOpen.As1.wav
pitch_keycenter=34
lokey=34
hikey=34
tune=0

<region>
sample=HighTom.Bn1.wav
pitch_keycenter=35
lokey=35
hikey=35
tune=0

<region>
sample=BassDrum.Cn1.wav
pitch_keycenter=36
lokey=36
hikey=36
tune=0

<region>
sample=SnareRoll.Cs1.wav
pitch_keycenter=37
lokey=37
hikey=37
tune=0

<region>
sample=SnareRollShort.Dn1.wav
pitch_keycenter=38
lokey=38
hikey=38
tune=0

<region>
sample=SnareOpneRim.Ds1.wav
pitch_keycenter=39
lokey=39
hikey=39
tune=0

<region>
sample=Snare.En1.wav
pitch_keycenter=40
lokey=40
hikey=40
tune=0

<region>
sample=FloorTom.As1@Fn1.wav
pitch_keycenter=41
lokey=41
hikey=41
tune=-700

<region>
sample=HihatClose.Fs1.wav
pitch_keycenter=42
lokey=42
hikey=42
tune=0

<region>
sample=LowTom.Gn1.wav
pitch_keycenter=43
lokey=43
hikey=43
tune=0

<region>
sample=HihatCloseToOpen.Gs1.wav
pitch_keycenter=44
lokey=44
hikey=47
tune=0

<region>
sample=RideCymbal.Cn2.wav
pitch_keycenter=48
lokey=48
hikey=48
tune=0

<region>
sample=RideCymbalCup.Cs2.wav
pitch_keycenter=49
lokey=49
hikey=49
tune=0

<region>
sample=RideCymbalff.Dn2.wav
pitch_keycenter=50
lokey=50
hikey=50
tune=0

<region>
sample=Crach.Ds2.wav
pitch_keycenter=51
lokey=51
hikey=51
tune=0

<region>
sample=CrashCup.En2.wav
pitch_keycenter=52
lokey=52
hikey=52
tune=0

<region>
sample=SplashCymbal.Fn2.wav
pitch_keycenter=53
lokey=53
hikey=53
tune=0

<region>
sample=ChinaCymbal.Fs2.wav
pitch_keycenter=54
lokey=54
hikey=127
tune=0


